<?xml version="1.0" standalone="no"?>
<!DOCTYPE svg PUBLIC "-//W3C//DTD SVG 1.1//EN"
  "http://www.w3.org/Graphics/SVG/1.1/DTD/svg11.dtd">
<!-- Created with matplotlib (http://matplotlib.sourceforge.net/) -->
<svg width="372pt" height="372pt" viewBox="0 0 372 372"
   xmlns="http://www.w3.org/2000/svg"
   xmlns:xlink="http://www.w3.org/1999/xlink"
   version="1.1"
   id="svg1">
<g id="figure1">
<path style="fill: #ffffff; stroke: #ffffff; stroke-width: 1.0; stroke-linejoin: miter; stroke-linecap: square;  opacity: 1.0"  d="M0.0 372.6L372.6 372.6L372.6 0.0L0.0 0.0L0.0 372.6"/>
<g id="axes1">
<g id="RegularPolyCollection1">
<defs>
<path id="coll0_0_4e8c1e696842be77dfcef5fd03863dfb" d="M1.78412411615 -1.78412411615L-1.78412411615 -1.78412411615
L-1.78412411615 1.78412411615L1.78412411615 1.78412411615
L1.78412411615 -1.78412411615"/>
</defs>
<defs>
  <clipPath id="pef600044810758c8a3b341a0eaca5f84">
<rect x="46.575" y="37.26" width="288.765" height="298.08"/>
  </clipPath>
</defs><g clip-path="url(#pef600044810758c8a3b341a0eaca5f84)"><use style="fill: #ff0000; stroke: #000000; stroke-width: 1.0; stroke-linejoin: miter; stroke-linecap: butt;  opacity: 1.0" xlink:href="#coll0_0_4e8c1e696842be77dfcef5fd03863dfb" x="138.853036" y="163.644334"/>
</g><g clip-path="url(#pef600044810758c8a3b341a0eaca5f84)"><use style="fill: #ff0000; stroke: #000000; stroke-width: 1.0; stroke-linejoin: miter; stroke-linecap: butt;  opacity: 1.0" xlink:href="#coll0_0_4e8c1e696842be77dfcef5fd03863dfb" x="138.175114" y="156.071243"/>
</g><g clip-path="url(#pef600044810758c8a3b341a0eaca5f84)"><use style="fill: #ff0000; stroke: #000000; stroke-width: 1.0; stroke-linejoin: miter; stroke-linecap: butt;  opacity: 1.0" xlink:href="#coll0_0_4e8c1e696842be77dfcef5fd03863dfb" x="140.919827" y="151.522911"/>
</g><g clip-path="url(#pef600044810758c8a3b341a0eaca5f84)"><use style="fill: #ff0000; stroke: #000000; stroke-width: 1.0; stroke-linejoin: miter; stroke-linecap: butt;  opacity: 1.0" xlink:href="#coll0_0_4e8c1e696842be77dfcef5fd03863dfb" x="140.377920" y="155.183235"/>
</g><g clip-path="url(#pef600044810758c8a3b341a0eaca5f84)"><use style="fill: #ff0000; stroke: #000000; stroke-width: 1.0; stroke-linejoin: miter; stroke-linecap: butt;  opacity: 1.0" xlink:href="#coll0_0_4e8c1e696842be77dfcef5fd03863dfb" x="143.293794" y="164.779012"/>
</g></g>
<g id="line2d1">
<path style="fill: none; stroke: #000000; stroke-width: 1.0; stroke-linejoin: miter; stroke-linecap: square;  opacity: 1.0" clip-path="url(#pef600044810758c8a3b341a0eaca5f84)" d="M190.9575 86.94L192.691571104 86.9551330093L194.425113992 87.0005274274
L196.157600612 87.0761694268L197.888503231 87.1820359662
L199.617294599 87.3180947976L201.34344811 87.4843044762
L203.066437961 87.6806143729L204.785739311 87.9069646898
L206.500828446 88.1632864785L208.211182933 88.4495016607
L209.916281781 88.7655230526L211.6156056 89.1112543911
L213.30863676 89.4865903629L214.994859547 89.8914166372
L216.673760321 90.3256098999L218.344827674 90.7890378916
L220.007552581 91.2815594475L221.661428561 91.8030245409
L223.305951827 92.3532743285L224.940621441 92.9321411987
L226.564939467 93.5394488232L228.178411122 94.1750122102
L229.780544927 94.838637761L231.370852856 95.5301233286
L232.948850487 96.24925828L234.514057145 96.9958235597
L236.065996054 97.7695917566L237.604194478 98.5703271735
L239.128183868 99.3977858986L240.6375 100.25171588
L242.131683123 101.131857002L243.610278094 102.037941166
L245.072834519 102.969692369L246.518906889 103.926826791
L247.948054716 104.909052879L249.359842668 105.916071439
L250.7538407 106.947575722L252.129624188 108.003251522
L253.486774055 109.08277727L254.824876898 110.185824132
L256.14352512 111.312056109L257.442317048 112.461130141
L258.720857056 113.632696207L259.978755689 114.826397438
L261.215629779 116.041870221L262.431102562 117.278744311
L263.624803793 118.536642944L264.796369859 119.815182952
L265.945443891 121.11397488L267.071675868 122.432623102
L268.17472273 123.770725945L269.254248478 125.127875812
L270.309924278 126.5036593L271.341428561 127.897657332
L272.348447121 129.309445284L273.330673209 130.738593111
L274.287807631 132.184665481L275.219558834 133.647221906
L276.125642998 135.125816877L277.00578412 136.62
L277.859714101 138.129316132L278.687172826 139.653305522
L279.487908243 141.191503946L280.26167644 142.743442855
L281.00824172 144.308649513L281.727376671 145.886647144
L282.418862239 147.476955073L283.08248779 149.079088878
L283.718051177 150.692560533L284.325358801 152.316878559
L284.904225672 153.951548173L285.454475459 155.596071439
L285.975940552 157.249947419L286.468462108 158.912672326
L286.9318901 160.583739679L287.366083363 162.262640453
L287.770909637 163.94886324L288.146245609 165.6418944
L288.491976947 167.341218219L288.807998339 169.046317067
L289.094213522 170.756671554L289.35053531 172.471760689
L289.576885627 174.191062039L289.773195524 175.91405189
L289.939405202 177.640205401L290.075464034 179.368996769
L290.181330573 181.099899388L290.256972573 182.832386008
L290.302366991 184.565928896L290.3175 186.3L290.302366991 188.034071104
L290.256972573 189.767613992L290.181330573 191.500100612
L290.075464034 193.231003231L289.939405202 194.959794599
L289.773195524 196.68594811L289.576885627 198.408937961
L289.35053531 200.128239311L289.094213522 201.843328446
L288.807998339 203.553682933L288.491976947 205.258781781
L288.146245609 206.9581056L287.770909637 208.65113676
L287.366083363 210.337359547L286.9318901 212.016260321
L286.468462108 213.687327674L285.975940552 215.350052581
L285.454475459 217.003928561L284.904225672 218.648451827
L284.325358801 220.283121441L283.718051177 221.907439467
L283.08248779 223.520911122L282.418862239 225.123044927
L281.727376671 226.713352856L281.00824172 228.291350487
L280.26167644 229.856557145L279.487908243 231.408496054
L278.687172826 232.946694478L277.859714101 234.470683868
L277.00578412 235.98L276.125642998 237.474183123
L275.219558834 238.952778094L274.287807631 240.415334519
L273.330673209 241.861406889L272.348447121 243.290554716
L271.341428561 244.702342668L270.309924278 246.0963407
L269.254248478 247.472124188L268.17472273 248.829274055
L267.071675868 250.167376898L265.945443891 251.48602512
L264.796369859 252.784817048L263.624803793 254.063357056
L262.431102562 255.321255689L261.215629779 256.558129779
L259.978755689 257.773602562L258.720857056 258.967303793
L257.442317048 260.138869859L256.14352512 261.287943891
L254.824876898 262.414175868L253.486774055 263.51722273
L252.129624188 264.596748478L250.7538407 265.652424278
L249.359842668 266.683928561L247.948054716 267.690947121
L246.518906889 268.673173209L245.072834519 269.630307631
L243.610278094 270.562058834L242.131683123 271.468142998
L240.6375 272.34828412L239.128183868 273.202214101
L237.604194478 274.029672826L236.065996054 274.830408243
L234.514057145 275.60417644L232.948850487 276.35074172
L231.370852856 277.069876671L229.780544927 277.761362239
L228.178411122 278.42498779L226.564939467 279.060551177
L224.940621441 279.667858801L223.305951827 280.246725672
L221.661428561 280.796975459L220.007552581 281.318440552
L218.344827674 281.810962108L216.673760321 282.2743901
L214.994859547 282.708583363L213.30863676 283.113409637
L211.6156056 283.488745609L209.916281781 283.834476947
L208.211182933 284.150498339L206.500828446 284.436713522
L204.785739311 284.69303531L203.066437961 284.919385627
L201.34344811 285.115695524L199.617294599 285.281905202
L197.888503231 285.417964034L196.157600612 285.523830573
L194.425113992 285.599472573L192.691571104 285.644866991L190.9575 285.66
L189.223428896 285.644866991L187.489886008 285.599472573
L185.757399388 285.523830573L184.026496769 285.417964034
L182.297705401 285.281905202L180.57155189 285.115695524
L178.848562039 284.919385627L177.129260689 284.69303531
L175.414171554 284.436713522L173.703817067 284.150498339
L171.998718219 283.834476947L170.2993944 283.488745609
L168.60636324 283.113409637L166.920140453 282.708583363
L165.241239679 282.2743901L163.570172326 281.810962108
L161.907447419 281.318440552L160.253571439 280.796975459
L158.609048173 280.246725672L156.974378559 279.667858801
L155.350060533 279.060551177L153.736588878 278.42498779
L152.134455073 277.761362239L150.544147144 277.069876671
L148.966149513 276.35074172L147.400942855 275.60417644
L145.849003946 274.830408243L144.310805522 274.029672826
L142.786816132 273.202214101L141.2775 272.34828412
L139.783316877 271.468142998L138.304721906 270.562058834
L136.842165481 269.630307631L135.396093111 268.673173209
L133.966945284 267.690947121L132.555157332 266.683928561
L131.1611593 265.652424278L129.785375812 264.596748478
L128.428225945 263.51722273L127.090123102 262.414175868
L125.77147488 261.287943891L124.472682952 260.138869859
L123.194142944 258.967303793L121.936244311 257.773602562
L120.699370221 256.558129779L119.483897438 255.321255689
L118.290196207 254.063357056L117.118630141 252.784817048
L115.969556109 251.48602512L114.843324132 250.167376898
L113.74027727 248.829274055L112.660751522 247.472124188
L111.605075722 246.0963407L110.573571439 244.702342668
L109.566552879 243.290554716L108.584326791 241.861406889
L107.627192369 240.415334519L106.695441166 238.952778094
L105.789357002 237.474183123L104.90921588 235.98
L104.055285899 234.470683868L103.227827174 232.946694478
L102.427091757 231.408496054L101.65332356 229.856557145
L100.90675828 228.291350487L100.187623329 226.713352856
L99.496137761 225.123044927L98.8325122102 223.520911122
L98.1969488232 221.907439467L97.5896411987 220.283121441
L97.0107743285 218.648451827L96.4605245409 217.003928561
L95.9390594475 215.350052581L95.4465378916 213.687327674
L94.9831098999 212.016260321L94.5489166372 210.337359547
L94.1440903629 208.65113676L93.7687543911 206.9581056
L93.4230230526 205.258781781L93.1070016607 203.553682933
L92.8207864785 201.843328446L92.5644646898 200.128239311
L92.3381143729 198.408937961L92.1418044762 196.68594811
L91.9755947976 194.959794599L91.8395359662 193.231003231
L91.7336694268 191.500100612L91.6580274274 189.767613992
L91.6126330093 188.034071104L91.5975 186.3L91.6126330093 184.565928896
L91.6580274274 182.832386008L91.7336694268 181.099899388
L91.8395359662 179.368996769L91.9755947976 177.640205401
L92.1418044762 175.91405189L92.3381143729 174.191062039
L92.5644646898 172.471760689L92.8207864785 170.756671554
L93.1070016607 169.046317067L93.4230230526 167.341218219
L93.7687543911 165.6418944L94.1440903629 163.94886324
L94.5489166372 162.262640453L94.9831098999 160.583739679
L95.4465378916 158.912672326L95.9390594475 157.249947419
L96.4605245409 155.596071439L97.0107743285 153.951548173
L97.5896411987 152.316878559L98.1969488232 150.692560533
L98.8325122102 149.079088878L99.496137761 147.476955073
L100.187623329 145.886647144L100.90675828 144.308649513
L101.65332356 142.743442855L102.427091757 141.191503946
L103.227827174 139.653305522L104.055285899 138.129316132
L104.90921588 136.62L105.789357002 135.125816877
L106.695441166 133.647221906L107.627192369 132.184665481
L108.584326791 130.738593111L109.566552879 129.309445284
L110.573571439 127.897657332L111.605075722 126.5036593
L112.660751522 125.127875812L113.74027727 123.770725945
L114.843324132 122.432623102L115.969556109 121.11397488
L117.118630141 119.815182952L118.290196207 118.536642944
L119.483897438 117.278744311L120.699370221 116.041870221
L121.936244311 114.826397438L123.194142944 113.632696207
L124.472682952 112.461130141L125.77147488 111.312056109
L127.090123102 110.185824132L128.428225945 109.08277727
L129.785375812 108.003251522L131.1611593 106.947575722
L132.555157332 105.916071439L133.966945284 104.909052879
L135.396093111 103.926826791L136.842165481 102.969692369
L138.304721906 102.037941166L139.783316877 101.131857002
L141.2775 100.25171588L142.786816132 99.3977858986
L144.310805522 98.5703271735L145.849003946 97.7695917566
L147.400942855 96.9958235597L148.966149513 96.24925828
L150.544147144 95.5301233286L152.134455073 94.838637761
L153.736588878 94.1750122102L155.350060533 93.5394488232
L156.974378559 92.9321411987L158.609048173 92.3532743285
L160.253571439 91.8030245409L161.907447419 91.2815594475
L163.570172326 90.7890378916L165.241239679 90.3256098999
L166.920140453 89.8914166372L168.60636324 89.4865903629
L170.2993944 89.1112543911L171.998718219 88.7655230526
L173.703817067 88.4495016607L175.414171554 88.1632864785
L177.129260689 87.9069646898L178.848562039 87.6806143729
L180.57155189 87.4843044762L182.297705401 87.3180947976
L184.026496769 87.1820359662L185.757399388 87.0761694268
L187.489886008 87.0005274274L189.223428896 86.9551330093L190.9575 86.94"/>
</g>
<g id="line2d2">
<defs><path id="m8e6a9bc78565d90005bb5b9e3fb61c94" d="M-3.0 0.0L3.0 0.0M0.0 3.0L0.0 -3.0"/></defs>
<g clip-path="url(#pef600044810758c8a3b341a0eaca5f84)"><use style="fill: none; stroke: #000000; stroke-width: 0.5; stroke-linejoin: miter; stroke-linecap: butt;  opacity: 1.0" xlink:href="#m8e6a9bc78565d90005bb5b9e3fb61c94" x="281.279611" y="186.300000"/>
<use style="fill: none; stroke: #000000; stroke-width: 0.5; stroke-linejoin: miter; stroke-linecap: butt;  opacity: 1.0" xlink:href="#m8e6a9bc78565d90005bb5b9e3fb61c94" x="271.554315" y="186.300000"/>
<use style="fill: none; stroke: #000000; stroke-width: 0.5; stroke-linejoin: miter; stroke-linecap: butt;  opacity: 1.0" xlink:href="#m8e6a9bc78565d90005bb5b9e3fb61c94" x="261.215630" y="186.300000"/>
<use style="fill: none; stroke: #000000; stroke-width: 0.5; stroke-linejoin: miter; stroke-linecap: butt;  opacity: 1.0" xlink:href="#m8e6a9bc78565d90005bb5b9e3fb61c94" x="250.342237" y="186.300000"/>
<use style="fill: none; stroke: #000000; stroke-width: 0.5; stroke-linejoin: miter; stroke-linecap: butt;  opacity: 1.0" xlink:href="#m8e6a9bc78565d90005bb5b9e3fb61c94" x="239.016891" y="186.300000"/>
<use style="fill: none; stroke: #000000; stroke-width: 0.5; stroke-linejoin: miter; stroke-linecap: butt;  opacity: 1.0" xlink:href="#m8e6a9bc78565d90005bb5b9e3fb61c94" x="227.325784" y="186.300000"/>
<use style="fill: none; stroke: #000000; stroke-width: 0.5; stroke-linejoin: miter; stroke-linecap: butt;  opacity: 1.0" xlink:href="#m8e6a9bc78565d90005bb5b9e3fb61c94" x="215.357892" y="186.300000"/>
<use style="fill: none; stroke: #000000; stroke-width: 0.5; stroke-linejoin: miter; stroke-linecap: butt;  opacity: 1.0" xlink:href="#m8e6a9bc78565d90005bb5b9e3fb61c94" x="203.204299" y="186.300000"/>
<use style="fill: none; stroke: #000000; stroke-width: 0.5; stroke-linejoin: miter; stroke-linecap: butt;  opacity: 1.0" xlink:href="#m8e6a9bc78565d90005bb5b9e3fb61c94" x="190.957500" y="186.300000"/>
</g></g>
<g id="line2d3">
<path style="fill: none; stroke: #000000; stroke-width: 1.0; stroke-linejoin: miter; stroke-linecap: square;  opacity: 1.0" clip-path="url(#pef600044810758c8a3b341a0eaca5f84)" d="M190.9575 86.94L190.9575 87.8108518915L190.9575 88.6892041129
L190.9575 89.5749897743"/>
</g>
<g id="line2d4">
<path style="fill: none; stroke: #000000; stroke-width: 1.0; stroke-linejoin: miter; stroke-linecap: square;  opacity: 1.0" clip-path="url(#pef600044810758c8a3b341a0eaca5f84)" d="M208.211182933 88.4495016607L208.059961089 89.3071233551
L207.907436826 90.1721314327L207.753621761 91.0444600195"/>
</g>
<g id="line2d5">
<path style="fill: none; stroke: #000000; stroke-width: 1.0; stroke-linejoin: miter; stroke-linecap: square;  opacity: 1.0" clip-path="url(#pef600044810758c8a3b341a0eaca5f84)" d="M224.940621441 92.9321411987L224.642772552 93.7504742949
L224.342358399 94.5758553958L224.039401861 95.4082216455"/>
</g>
<g id="line2d6">
<path style="fill: none; stroke: #000000; stroke-width: 1.0; stroke-linejoin: miter; stroke-linecap: square;  opacity: 1.0" clip-path="url(#pef600044810758c8a3b341a0eaca5f84)" d="M240.6375 100.25171588L240.202074054 101.005895741
L239.762897944 101.766571078L239.320005113 102.533683963"/>
</g>
<g id="line2d7">
<path style="fill: none; stroke: #000000; stroke-width: 1.0; stroke-linejoin: miter; stroke-linecap: square;  opacity: 1.0" clip-path="url(#pef600044810758c8a3b341a0eaca5f84)" d="M254.824876898 110.185824132L254.265104093 110.852935384
L253.700510168 111.525792222L253.13113812 112.204343406"/>
</g>
<g id="line2d8">
<path style="fill: none; stroke: #000000; stroke-width: 1.0; stroke-linejoin: miter; stroke-linecap: square;  opacity: 1.0" clip-path="url(#pef600044810758c8a3b341a0eaca5f84)" d="M267.071675868 122.432623102L266.404564616 122.992395907
L265.731707778 123.556989832L265.053156594 124.12636188"/>
</g>
<g id="line2d9">
<path style="fill: none; stroke: #000000; stroke-width: 1.0; stroke-linejoin: miter; stroke-linecap: square;  opacity: 1.0" clip-path="url(#pef600044810758c8a3b341a0eaca5f84)" d="M277.00578412 136.62L276.251604259 137.055425946
L275.490928922 137.494602056L274.723816037 137.937494887"/>
</g>
<g id="line2d10">
<path style="fill: none; stroke: #000000; stroke-width: 1.0; stroke-linejoin: miter; stroke-linecap: square;  opacity: 1.0" clip-path="url(#pef600044810758c8a3b341a0eaca5f84)" d="M284.325358801 152.316878559L283.507025705 152.614727448
L282.681644604 152.915141601L281.849278355 153.218098139"/>
</g>
<g id="line2d11">
<path style="fill: none; stroke: #000000; stroke-width: 1.0; stroke-linejoin: miter; stroke-linecap: square;  opacity: 1.0" clip-path="url(#pef600044810758c8a3b341a0eaca5f84)" d="M288.807998339 169.046317067L287.950376645 169.197538911
L287.085368567 169.350063174L286.21303998 169.503878239"/>
</g>
<g id="line2d12">
<path style="fill: none; stroke: #000000; stroke-width: 1.0; stroke-linejoin: miter; stroke-linecap: square;  opacity: 1.0" clip-path="url(#pef600044810758c8a3b341a0eaca5f84)" d="M290.3175 186.3L289.446648109 186.3L288.568295887 186.3L287.682510226 186.3"/>
</g>
<g id="line2d13">
<path style="fill: none; stroke: #000000; stroke-width: 1.0; stroke-linejoin: miter; stroke-linecap: square;  opacity: 1.0" clip-path="url(#pef600044810758c8a3b341a0eaca5f84)" d="M288.807998339 203.553682933L287.950376645 203.402461089
L287.085368567 203.249936826L286.21303998 203.096121761"/>
</g>
<g id="line2d14">
<path style="fill: none; stroke: #000000; stroke-width: 1.0; stroke-linejoin: miter; stroke-linecap: square;  opacity: 1.0" clip-path="url(#pef600044810758c8a3b341a0eaca5f84)" d="M284.325358801 220.283121441L283.507025705 219.985272552
L282.681644604 219.684858399L281.849278355 219.381901861"/>
</g>
<g id="line2d15">
<path style="fill: none; stroke: #000000; stroke-width: 1.0; stroke-linejoin: miter; stroke-linecap: square;  opacity: 1.0" clip-path="url(#pef600044810758c8a3b341a0eaca5f84)" d="M277.00578412 235.98L276.251604259 235.544574054
L275.490928922 235.105397944L274.723816037 234.662505113"/>
</g>
<g id="line2d16">
<path style="fill: none; stroke: #000000; stroke-width: 1.0; stroke-linejoin: miter; stroke-linecap: square;  opacity: 1.0" clip-path="url(#pef600044810758c8a3b341a0eaca5f84)" d="M267.071675868 250.167376898L266.404564616 249.607604093
L265.731707778 249.043010168L265.053156594 248.47363812"/>
</g>
<g id="line2d17">
<path style="fill: none; stroke: #000000; stroke-width: 1.0; stroke-linejoin: miter; stroke-linecap: square;  opacity: 1.0" clip-path="url(#pef600044810758c8a3b341a0eaca5f84)" d="M254.824876898 262.414175868L254.265104093 261.747064616
L253.700510168 261.074207778L253.13113812 260.395656594"/>
</g>
<g id="line2d18">
<path style="fill: none; stroke: #000000; stroke-width: 1.0; stroke-linejoin: miter; stroke-linecap: square;  opacity: 1.0" clip-path="url(#pef600044810758c8a3b341a0eaca5f84)" d="M240.6375 272.34828412L240.202074054 271.594104259
L239.762897944 270.833428922L239.320005113 270.066316037"/>
</g>
<g id="line2d19">
<path style="fill: none; stroke: #000000; stroke-width: 1.0; stroke-linejoin: miter; stroke-linecap: square;  opacity: 1.0" clip-path="url(#pef600044810758c8a3b341a0eaca5f84)" d="M224.940621441 279.667858801L224.642772552 278.849525705
L224.342358399 278.024144604L224.039401861 277.191778355"/>
</g>
<g id="line2d20">
<path style="fill: none; stroke: #000000; stroke-width: 1.0; stroke-linejoin: miter; stroke-linecap: square;  opacity: 1.0" clip-path="url(#pef600044810758c8a3b341a0eaca5f84)" d="M208.211182933 284.150498339L208.059961089 283.292876645
L207.907436826 282.427868567L207.753621761 281.55553998"/>
</g>
<g id="line2d21">
<path style="fill: none; stroke: #000000; stroke-width: 1.0; stroke-linejoin: miter; stroke-linecap: square;  opacity: 1.0" clip-path="url(#pef600044810758c8a3b341a0eaca5f84)" d="M190.9575 285.66L190.9575 284.789148109L190.9575 283.910795887
L190.9575 283.025010226"/>
</g>
<g id="line2d22">
<path style="fill: none; stroke: #000000; stroke-width: 1.0; stroke-linejoin: miter; stroke-linecap: square;  opacity: 1.0" clip-path="url(#pef600044810758c8a3b341a0eaca5f84)" d="M173.703817067 284.150498339L173.855038911 283.292876645
L174.007563174 282.427868567L174.161378239 281.55553998"/>
</g>
<g id="line2d23">
<path style="fill: none; stroke: #000000; stroke-width: 1.0; stroke-linejoin: miter; stroke-linecap: square;  opacity: 1.0" clip-path="url(#pef600044810758c8a3b341a0eaca5f84)" d="M156.974378559 279.667858801L157.272227448 278.849525705
L157.572641601 278.024144604L157.875598139 277.191778355"/>
</g>
<g id="line2d24">
<path style="fill: none; stroke: #000000; stroke-width: 1.0; stroke-linejoin: miter; stroke-linecap: square;  opacity: 1.0" clip-path="url(#pef600044810758c8a3b341a0eaca5f84)" d="M141.2775 272.34828412L141.712925946 271.594104259
L142.152102056 270.833428922L142.594994887 270.066316037"/>
</g>
<g id="line2d25">
<path style="fill: none; stroke: #000000; stroke-width: 1.0; stroke-linejoin: miter; stroke-linecap: square;  opacity: 1.0" clip-path="url(#pef600044810758c8a3b341a0eaca5f84)" d="M127.090123102 262.414175868L127.649895907 261.747064616
L128.214489832 261.074207778L128.78386188 260.395656594"/>
</g>
<g id="line2d26">
<path style="fill: none; stroke: #000000; stroke-width: 1.0; stroke-linejoin: miter; stroke-linecap: square;  opacity: 1.0" clip-path="url(#pef600044810758c8a3b341a0eaca5f84)" d="M114.843324132 250.167376898L115.510435384 249.607604093
L116.183292222 249.043010168L116.861843406 248.47363812"/>
</g>
<g id="line2d27">
<path style="fill: none; stroke: #000000; stroke-width: 1.0; stroke-linejoin: miter; stroke-linecap: square;  opacity: 1.0" clip-path="url(#pef600044810758c8a3b341a0eaca5f84)" d="M104.90921588 235.98L105.663395741 235.544574054
L106.424071078 235.105397944L107.191183963 234.662505113"/>
</g>
<g id="line2d28">
<path style="fill: none; stroke: #000000; stroke-width: 1.0; stroke-linejoin: miter; stroke-linecap: square;  opacity: 1.0" clip-path="url(#pef600044810758c8a3b341a0eaca5f84)" d="M97.5896411987 220.283121441L98.4079742949 219.985272552
L99.2333553958 219.684858399L100.065721645 219.381901861"/>
</g>
<g id="line2d29">
<path style="fill: none; stroke: #000000; stroke-width: 1.0; stroke-linejoin: miter; stroke-linecap: square;  opacity: 1.0" clip-path="url(#pef600044810758c8a3b341a0eaca5f84)" d="M93.1070016607 203.553682933L93.9646233551 203.402461089
L94.8296314327 203.249936826L95.7019600195 203.096121761"/>
</g>
<g id="line2d30">
<path style="fill: none; stroke: #000000; stroke-width: 1.0; stroke-linejoin: miter; stroke-linecap: square;  opacity: 1.0" clip-path="url(#pef600044810758c8a3b341a0eaca5f84)" d="M91.5975 186.3L92.4683518915 186.3L93.3467041129 186.3L94.2324897743 186.3"/>
</g>
<g id="line2d31">
<path style="fill: none; stroke: #000000; stroke-width: 1.0; stroke-linejoin: miter; stroke-linecap: square;  opacity: 1.0" clip-path="url(#pef600044810758c8a3b341a0eaca5f84)" d="M93.1070016607 169.046317067L93.9646233551 169.197538911
L94.8296314327 169.350063174L95.7019600195 169.503878239"/>
</g>
<g id="line2d32">
<path style="fill: none; stroke: #000000; stroke-width: 1.0; stroke-linejoin: miter; stroke-linecap: square;  opacity: 1.0" clip-path="url(#pef600044810758c8a3b341a0eaca5f84)" d="M97.5896411987 152.316878559L98.4079742949 152.614727448
L99.2333553958 152.915141601L100.065721645 153.218098139"/>
</g>
<g id="line2d33">
<path style="fill: none; stroke: #000000; stroke-width: 1.0; stroke-linejoin: miter; stroke-linecap: square;  opacity: 1.0" clip-path="url(#pef600044810758c8a3b341a0eaca5f84)" d="M104.90921588 136.62L105.663395741 137.055425946
L106.424071078 137.494602056L107.191183963 137.937494887"/>
</g>
<g id="line2d34">
<path style="fill: none; stroke: #000000; stroke-width: 1.0; stroke-linejoin: miter; stroke-linecap: square;  opacity: 1.0" clip-path="url(#pef600044810758c8a3b341a0eaca5f84)" d="M114.843324132 122.432623102L115.510435384 122.992395907
L116.183292222 123.556989832L116.861843406 124.12636188"/>
</g>
<g id="line2d35">
<path style="fill: none; stroke: #000000; stroke-width: 1.0; stroke-linejoin: miter; stroke-linecap: square;  opacity: 1.0" clip-path="url(#pef600044810758c8a3b341a0eaca5f84)" d="M127.090123102 110.185824132L127.649895907 110.852935384
L128.214489832 111.525792222L128.78386188 112.204343406"/>
</g>
<g id="line2d36">
<path style="fill: none; stroke: #000000; stroke-width: 1.0; stroke-linejoin: miter; stroke-linecap: square;  opacity: 1.0" clip-path="url(#pef600044810758c8a3b341a0eaca5f84)" d="M141.2775 100.25171588L141.712925946 101.005895741
L142.152102056 101.766571078L142.594994887 102.533683963"/>
</g>
<g id="line2d37">
<path style="fill: none; stroke: #000000; stroke-width: 1.0; stroke-linejoin: miter; stroke-linecap: square;  opacity: 1.0" clip-path="url(#pef600044810758c8a3b341a0eaca5f84)" d="M156.974378559 92.9321411987L157.272227448 93.7504742949
L157.572641601 94.5758553958L157.875598139 95.4082216455"/>
</g>
<g id="line2d38">
<path style="fill: none; stroke: #000000; stroke-width: 1.0; stroke-linejoin: miter; stroke-linecap: square;  opacity: 1.0" clip-path="url(#pef600044810758c8a3b341a0eaca5f84)" d="M173.703817067 88.4495016607L173.855038911 89.3071233551
L174.007563174 90.1721314327L174.161378239 91.0444600195"/>
</g>
<g id="line2d39">
<path style="fill: none; stroke: #000000; stroke-width: 0.5; stroke-linejoin: miter; stroke-linecap: square;  opacity: 1.0" clip-path="url(#pef600044810758c8a3b341a0eaca5f84)" d="M81.6615 295.596L300.2535 295.596L300.2535 77.004L81.6615 77.004
L81.6615 295.596"/>
</g>
<defs>
<path id="c_ea4b10e8bc619072d4c12d4803cf87f6" d="M54.890625 -33.015625l0.0 33.015625l-8.984375 0.0l0.0 -32.71875q0.0 -7.765625 -3.03125 -11.609375q-3.03125 -3.859375 -9.078125 -3.859375q-7.28125 0.0 -11.484375 4.640625q-4.203125 4.625 -4.203125 12.640625l0.0 30.90625l-9.03125 0.0l0.0 -54.6875l9.03125 0.0l0.0 8.5q3.234375 -4.9375 7.59375 -7.375q4.375 -2.4375 10.09375 -2.4375q9.421875 0.0 14.25 5.828125q4.84375 5.828125 4.84375 17.15625"/>
<path id="c_172c370045494a373b8cd42e76c2a247" d="M44.28125 -53.078125l0.0 8.5q-3.796875 -1.953125 -7.90625 -2.921875q-4.09375 -0.984375 -8.5 -0.984375q-6.6875 0.0 -10.03125 2.046875q-3.34375 2.046875 -3.34375 6.15625q0.0 3.125 2.390625 4.90625q2.390625 1.78125 9.625 3.390625l3.078125 0.6875q9.5625 2.046875 13.59375 5.78125q4.03125 3.734375 4.03125 10.421875q0.0 7.625 -6.03125 12.078125q-6.03125 4.4375 -16.578125 4.4375q-4.390625 0.0 -9.15625 -0.859375q-4.765625 -0.859375 -10.03125 -2.5625l0.0 -9.28125q4.984375 2.59375 9.8125 3.890625q4.828125 1.28125 9.578125 1.28125q6.34375 0.0 9.75 -2.171875q3.421875 -2.171875 3.421875 -6.125q0.0 -3.65625 -2.46875 -5.609375q-2.453125 -1.953125 -10.8125 -3.765625l-3.125 -0.734375q-8.34375 -1.75 -12.0625 -5.390625q-3.703125 -3.640625 -3.703125 -9.984375q0.0 -7.71875 5.46875 -11.90625q5.46875 -4.203125 15.53125 -4.203125q4.96875 0.0 9.359375 0.734375q4.40625 0.71875 8.109375 2.1875"/>
<path id="c_95f14088edd5858aea2c3b4aa58e4de2" d="M31.78125 -66.40625q-7.609375 0.0 -11.453125 7.5q-3.828125 7.484375 -3.828125 22.53125q0.0 14.984375 3.828125 22.484375q3.84375 7.5 11.453125 7.5q7.671875 0.0 11.5 -7.5q3.84375 -7.5 3.84375 -22.484375q0.0 -15.046875 -3.84375 -22.53125q-3.828125 -7.5 -11.5 -7.5M31.78125 -74.21875q12.265625 0.0 18.734375 9.703125q6.46875 9.6875 6.46875 28.140625q0.0 18.40625 -6.46875 28.109375q-6.46875 9.6875 -18.734375 9.6875q-12.25 0.0 -18.71875 -9.6875q-6.46875 -9.703125 -6.46875 -28.109375q0.0 -18.453125 6.46875 -28.140625q6.46875 -9.703125 18.71875 -9.703125"/>
<path id="c_1a789725981e3580f6e795985204066c" d="M40.578125 -39.3125q7.078125 1.515625 11.046875 6.3125q3.984375 4.78125 3.984375 11.8125q0.0 10.78125 -7.421875 16.703125q-7.421875 5.90625 -21.09375 5.90625q-4.578125 0.0 -9.4375 -0.90625q-4.859375 -0.90625 -10.03125 -2.71875l0.0 -9.515625q4.09375 2.390625 8.96875 3.609375q4.890625 1.21875 10.21875 1.21875q9.265625 0.0 14.125 -3.65625q4.859375 -3.65625 4.859375 -10.640625q0.0 -6.453125 -4.515625 -10.078125q-4.515625 -3.640625 -12.5625 -3.640625l-8.5 0.0l0.0 -8.109375l8.890625 0.0q7.265625 0.0 11.125 -2.90625q3.859375 -2.90625 3.859375 -8.375q0.0 -5.609375 -3.984375 -8.609375q-3.96875 -3.015625 -11.390625 -3.015625q-4.0625 0.0 -8.703125 0.890625q-4.640625 0.875 -10.203125 2.71875l0.0 -8.78125q5.625 -1.5625 10.53125 -2.34375q4.90625 -0.78125 9.25 -0.78125q11.234375 0.0 17.765625 5.109375q6.546875 5.09375 6.546875 13.78125q0.0 6.0625 -3.46875 10.234375q-3.46875 4.171875 -9.859375 5.78125"/>
<path id="c_47a349c5fab6f63bcee0b405ba445c6f" d="M37.796875 -64.3125l-24.90625 38.921875l24.90625 0.0zM35.203125 -72.90625l12.40625 0.0l0.0 47.515625l10.40625 0.0l0.0 8.203125l-10.40625 0.0l0.0 17.1875l-9.8125 0.0l0.0 -17.1875l-32.90625 0.0l0.0 -9.515625z"/>
<path id="c_d41d8cd98f00b204e9800998ecf8427e" d=""/>
<path id="c_81df6980b0f29ea16f92b3ba51a26342" d="M59.515625 -10.40625l0.0 -19.578125l-16.109375 0.0l0.0 -8.109375l25.875 0.0l0.0 31.3125q-5.703125 4.046875 -12.59375 6.125q-6.875 2.078125 -14.6875 2.078125q-17.09375 0.0 -26.75 -9.984375q-9.640625 -10.0 -9.640625 -27.8125q0.0 -17.875 9.640625 -27.859375q9.65625 -9.984375 26.75 -9.984375q7.125 0.0 13.546875 1.765625q6.421875 1.75 11.84375 5.171875l0.0 10.5q-5.46875 -4.640625 -11.625 -6.984375q-6.15625 -2.34375 -12.9375 -2.34375q-13.390625 0.0 -20.109375 7.46875q-6.703125 7.46875 -6.703125 22.265625q0.0 14.75 6.703125 22.21875q6.71875 7.46875 20.109375 7.46875q5.21875 0.0 9.3125 -0.90625q4.109375 -0.90625 7.375 -2.8125"/>
<path id="c_9ba5f7895f8afffb5c1e159e8b3594f8" d="M56.203125 -29.59375l0.0 4.390625l-41.3125 0.0q0.59375 9.28125 5.59375 14.140625q5.0 4.859375 13.9375 4.859375q5.171875 0.0 10.03125 -1.265625q4.859375 -1.265625 9.65625 -3.8125l0.0 8.5q-4.84375 2.046875 -9.921875 3.125q-5.078125 1.078125 -10.296875 1.078125q-13.09375 0.0 -20.734375 -7.609375q-7.640625 -7.625 -7.640625 -20.625q0.0 -13.421875 7.25 -21.296875q7.25 -7.890625 19.5625 -7.890625q11.03125 0.0 17.453125 7.109375q6.421875 7.09375 6.421875 19.296875M47.21875 -32.234375q-0.09375 -7.359375 -4.125 -11.75q-4.03125 -4.40625 -10.671875 -4.40625q-7.515625 0.0 -12.03125 4.25q-4.515625 4.25 -5.203125 11.96875z"/>
<path id="c_f146195e4da029d1d478b07e45269eda" d="M30.609375 -48.390625q-7.21875 0.0 -11.421875 5.640625q-4.203125 5.640625 -4.203125 15.453125q0.0 9.8125 4.171875 15.453125q4.1875 5.640625 11.453125 5.640625q7.1875 0.0 11.375 -5.65625q4.203125 -5.671875 4.203125 -15.4375q0.0 -9.71875 -4.203125 -15.40625q-4.1875 -5.6875 -11.375 -5.6875M30.609375 -56.0q11.71875 0.0 18.40625 7.625q6.703125 7.609375 6.703125 21.078125q0.0 13.421875 -6.703125 21.078125q-6.6875 7.640625 -18.40625 7.640625q-11.765625 0.0 -18.4375 -7.640625q-6.65625 -7.65625 -6.65625 -21.078125q0.0 -13.46875 6.65625 -21.078125q6.671875 -7.625 18.4375 -7.625"/>
<path id="c_401cc870e2737ac21a21bd24c8b21204" d="M45.40625 -27.984375q0.0 -9.765625 -4.03125 -15.125q-4.015625 -5.375 -11.296875 -5.375q-7.21875 0.0 -11.25 5.375q-4.03125 5.359375 -4.03125 15.125q0.0 9.71875 4.03125 15.09375q4.03125 5.375 11.25 5.375q7.28125 0.0 11.296875 -5.375q4.03125 -5.375 4.03125 -15.09375M54.390625 -6.78125q0.0 13.953125 -6.203125 20.765625q-6.1875 6.8125 -18.984375 6.8125q-4.734375 0.0 -8.9375 -0.703125q-4.203125 -0.703125 -8.15625 -2.171875l0.0 -8.734375q3.953125 2.140625 7.8125 3.15625q3.859375 1.03125 7.859375 1.03125q8.84375 0.0 13.234375 -4.609375q4.390625 -4.609375 4.390625 -13.9375l0.0 -4.453125q-2.78125 4.84375 -7.125 7.234375q-4.34375 2.390625 -10.40625 2.390625q-10.046875 0.0 -16.203125 -7.65625q-6.15625 -7.671875 -6.15625 -20.328125q0.0 -12.6875 6.15625 -20.34375q6.15625 -7.671875 16.203125 -7.671875q6.0625 0.0 10.40625 2.390625q4.34375 2.390625 7.125 7.21875l0.0 -8.296875l8.984375 0.0z"/>
<path id="c_4118e466f114a602b61b3a6298d386e9" d="M41.109375 -46.296875q-1.515625 -0.875 -3.296875 -1.28125q-1.78125 -0.421875 -3.921875 -0.421875q-7.625 0.0 -11.703125 4.953125q-4.078125 4.953125 -4.078125 14.234375l0.0 28.8125l-9.03125 0.0l0.0 -54.6875l9.03125 0.0l0.0 8.5q2.84375 -4.984375 7.375 -7.390625q4.546875 -2.421875 11.046875 -2.421875q0.921875 0.0 2.046875 0.125q1.125 0.109375 2.484375 0.359375z"/>
<path id="c_97cced06352dabd27facc1bd04e1f2f5" d="M34.28125 -27.484375q-10.890625 0.0 -15.09375 2.484375q-4.203125 2.484375 -4.203125 8.5q0.0 4.78125 3.15625 7.59375q3.15625 2.796875 8.5625 2.796875q7.484375 0.0 12.0 -5.296875q4.515625 -5.296875 4.515625 -14.078125l0.0 -2.0zM52.203125 -31.203125l0.0 31.203125l-8.984375 0.0l0.0 -8.296875q-3.078125 4.96875 -7.671875 7.34375q-4.59375 2.375 -11.234375 2.375q-8.390625 0.0 -13.359375 -4.71875q-4.953125 -4.71875 -4.953125 -12.625q0.0 -9.21875 6.171875 -13.90625q6.1875 -4.6875 18.4375 -4.6875l12.609375 0.0l0.0 -0.890625q0.0 -6.203125 -4.078125 -9.59375q-4.078125 -3.390625 -11.453125 -3.390625q-4.6875 0.0 -9.140625 1.125q-4.4375 1.125 -8.53125 3.375l0.0 -8.3125q4.921875 -1.90625 9.5625 -2.84375q4.640625 -0.953125 9.03125 -0.953125q11.875 0.0 17.734375 6.15625q5.859375 6.140625 5.859375 18.640625"/>
<path id="c_513dbe2c276079f39ecef771c689c13a" d="M18.109375 -8.203125l0.0 29.0l-9.03125 0.0l0.0 -75.484375l9.03125 0.0l0.0 8.296875q2.84375 -4.875 7.15625 -7.234375q4.328125 -2.375 10.328125 -2.375q9.96875 0.0 16.1875 7.90625q6.234375 7.90625 6.234375 20.796875q0.0 12.890625 -6.234375 20.8125q-6.21875 7.90625 -16.1875 7.90625q-6.0 0.0 -10.328125 -2.375q-4.3125 -2.375 -7.15625 -7.25M48.6875 -27.296875q0.0 -9.90625 -4.078125 -15.546875q-4.078125 -5.640625 -11.203125 -5.640625q-7.140625 0.0 -11.21875 5.640625q-4.078125 5.640625 -4.078125 15.546875q0.0 9.90625 4.078125 15.546875q4.078125 5.640625 11.21875 5.640625q7.125 0.0 11.203125 -5.640625q4.078125 -5.640625 4.078125 -15.546875"/>
<path id="c_908860b3649b817b8a12322fedc5a448" d="M54.890625 -33.015625l0.0 33.015625l-8.984375 0.0l0.0 -32.71875q0.0 -7.765625 -3.03125 -11.609375q-3.03125 -3.859375 -9.078125 -3.859375q-7.28125 0.0 -11.484375 4.640625q-4.203125 4.625 -4.203125 12.640625l0.0 30.90625l-9.03125 0.0l0.0 -75.984375l9.03125 0.0l0.0 29.796875q3.234375 -4.9375 7.59375 -7.375q4.375 -2.4375 10.09375 -2.4375q9.421875 0.0 14.25 5.828125q4.84375 5.828125 4.84375 17.15625"/>
<path id="c_8d6ee5dadaaa9460f50eedd5d62d2be4" d="M9.421875 -54.6875l8.984375 0.0l0.0 54.6875l-8.984375 0.0zM9.421875 -75.984375l8.984375 0.0l0.0 11.390625l-8.984375 0.0z"/>
<path id="c_c1179d714cec38b60d6622b5a8807824" d="M48.78125 -52.59375l0.0 8.40625q-3.8125 -2.109375 -7.640625 -3.15625q-3.828125 -1.046875 -7.734375 -1.046875q-8.75 0.0 -13.59375 5.546875q-4.828125 5.53125 -4.828125 15.546875q0.0 10.015625 4.828125 15.5625q4.84375 5.53125 13.59375 5.53125q3.90625 0.0 7.734375 -1.046875q3.828125 -1.046875 7.640625 -3.15625l0.0 8.3125q-3.765625 1.75 -7.796875 2.625q-4.015625 0.890625 -8.5625 0.890625q-12.359375 0.0 -19.640625 -7.765625q-7.265625 -7.765625 -7.265625 -20.953125q0.0 -13.375 7.34375 -21.03125q7.359375 -7.671875 20.15625 -7.671875q4.140625 0.0 8.09375 0.859375q3.953125 0.84375 7.671875 2.546875"/>
<path id="c_f88e6a189695493ea568e2c3aa45794e" d="M64.40625 -67.28125l0.0 10.390625q-4.984375 -4.640625 -10.625 -6.921875q-5.640625 -2.296875 -11.984375 -2.296875q-12.5 0.0 -19.140625 7.640625q-6.640625 7.640625 -6.640625 22.09375q0.0 14.40625 6.640625 22.046875q6.640625 7.640625 19.140625 7.640625q6.34375 0.0 11.984375 -2.296875q5.640625 -2.296875 10.625 -6.9375l0.0 10.3125q-5.171875 3.515625 -10.96875 5.28125q-5.78125 1.75 -12.21875 1.75q-16.5625 0.0 -26.09375 -10.125q-9.515625 -10.140625 -9.515625 -27.671875q0.0 -17.578125 9.515625 -27.703125q9.53125 -10.140625 26.09375 -10.140625q6.53125 0.0 12.3125 1.734375q5.796875 1.734375 10.875 5.203125"/>
<path id="c_ef35182080b6b1a8670663c93ffc438b" d="M45.40625 -46.390625l0.0 -29.59375l8.984375 0.0l0.0 75.984375l-8.984375 0.0l0.0 -8.203125q-2.828125 4.875 -7.15625 7.25q-4.3125 2.375 -10.375 2.375q-9.90625 0.0 -16.140625 -7.90625q-6.21875 -7.921875 -6.21875 -20.8125q0.0 -12.890625 6.21875 -20.796875q6.234375 -7.90625 16.140625 -7.90625q6.0625 0.0 10.375 2.375q4.328125 2.359375 7.15625 7.234375M14.796875 -27.296875q0.0 9.90625 4.078125 15.546875q4.078125 5.640625 11.203125 5.640625q7.125 0.0 11.21875 -5.640625q4.109375 -5.640625 4.109375 -15.546875q0.0 -9.90625 -4.109375 -15.546875q-4.09375 -5.640625 -11.21875 -5.640625q-7.125 0.0 -11.203125 5.640625q-4.078125 5.640625 -4.078125 15.546875"/>
<path id="c_7719cac8f98cf2bca3e99fb2bb21e785" d="M18.3125 -70.21875l0.0 15.53125l18.5 0.0l0.0 6.984375l-18.5 0.0l0.0 29.6875q0.0 6.6875 1.828125 8.59375q1.828125 1.90625 7.453125 1.90625l9.21875 0.0l0.0 7.515625l-9.21875 0.0q-10.40625 0.0 -14.359375 -3.875q-3.953125 -3.890625 -3.953125 -14.140625l0.0 -29.6875l-6.59375 0.0l0.0 -6.984375l6.59375 0.0l0.0 -15.53125z"/>
</defs>
<g style="fill: #000000; opacity: 1.0" transform="translate(81.6615,69.536)scale(0.12)">
<use xlink:href="#c_ea4b10e8bc619072d4c12d4803cf87f6"/>
<use xlink:href="#c_172c370045494a373b8cd42e76c2a247" x="63.37890625"/>
<use xlink:href="#c_95f14088edd5858aea2c3b4aa58e4de2" x="115.478515625"/>
<use xlink:href="#c_1a789725981e3580f6e795985204066c" x="179.1015625"/>
<use xlink:href="#c_47a349c5fab6f63bcee0b405ba445c6f" x="242.724609375"/>
<use xlink:href="#c_d41d8cd98f00b204e9800998ecf8427e" x="306.34765625"/>
<use xlink:href="#c_81df6980b0f29ea16f92b3ba51a26342" x="338.134765625"/>
<use xlink:href="#c_9ba5f7895f8afffb5c1e159e8b3594f8" x="415.625"/>
<use xlink:href="#c_f146195e4da029d1d478b07e45269eda" x="477.1484375"/>
<use xlink:href="#c_401cc870e2737ac21a21bd24c8b21204" x="538.330078125"/>
<use xlink:href="#c_4118e466f114a602b61b3a6298d386e9" x="601.806640625"/>
<use xlink:href="#c_97cced06352dabd27facc1bd04e1f2f5" x="642.919921875"/>
<use xlink:href="#c_513dbe2c276079f39ecef771c689c13a" x="704.19921875"/>
<use xlink:href="#c_908860b3649b817b8a12322fedc5a448" x="767.67578125"/>
<use xlink:href="#c_8d6ee5dadaaa9460f50eedd5d62d2be4" x="831.0546875"/>
<use xlink:href="#c_c1179d714cec38b60d6622b5a8807824" x="858.837890625"/>
<use xlink:href="#c_d41d8cd98f00b204e9800998ecf8427e" x="913.818359375"/>
<use xlink:href="#c_f88e6a189695493ea568e2c3aa45794e" x="945.60546875"/>
<use xlink:href="#c_f146195e4da029d1d478b07e45269eda" x="1015.4296875"/>
<use xlink:href="#c_f146195e4da029d1d478b07e45269eda" x="1076.61132812"/>
<use xlink:href="#c_4118e466f114a602b61b3a6298d386e9" x="1137.79296875"/>
<use xlink:href="#c_ef35182080b6b1a8670663c93ffc438b" x="1177.15625"/>
<use xlink:href="#c_8d6ee5dadaaa9460f50eedd5d62d2be4" x="1240.6328125"/>
<use xlink:href="#c_ea4b10e8bc619072d4c12d4803cf87f6" x="1268.41601562"/>
<use xlink:href="#c_97cced06352dabd27facc1bd04e1f2f5" x="1331.79492187"/>
<use xlink:href="#c_7719cac8f98cf2bca3e99fb2bb21e785" x="1393.07421875"/>
<use xlink:href="#c_9ba5f7895f8afffb5c1e159e8b3594f8" x="1432.28320312"/>
<use xlink:href="#c_172c370045494a373b8cd42e76c2a247" x="1493.80664062"/>
</g>
</g>
<defs>
<path id="c_e33e9f75b343c712beb8957b453e5802" d="M52.0 -44.1875q3.375 -6.0625 8.0625 -8.9375q4.6875 -2.875 11.03125 -2.875q8.546875 0.0 13.1875 5.984375q4.640625 5.96875 4.640625 17.0l0.0 33.015625l-9.03125 0.0l0.0 -32.71875q0.0 -7.859375 -2.796875 -11.65625q-2.78125 -3.8125 -8.484375 -3.8125q-6.984375 0.0 -11.046875 4.640625q-4.046875 4.625 -4.046875 12.640625l0.0 30.90625l-9.03125 0.0l0.0 -32.71875q0.0 -7.90625 -2.78125 -11.6875q-2.78125 -3.78125 -8.59375 -3.78125q-6.890625 0.0 -10.953125 4.65625q-4.046875 4.65625 -4.046875 12.625l0.0 30.90625l-9.03125 0.0l0.0 -54.6875l9.03125 0.0l0.0 8.5q3.078125 -5.03125 7.375 -7.421875q4.296875 -2.390625 10.203125 -2.390625q5.96875 0.0 10.140625 3.03125q4.171875 3.015625 6.171875 8.78125"/>
<path id="c_8e7fa73cf60e732bddcc1945b138603a" d="M32.171875 5.078125q-3.796875 9.765625 -7.421875 12.734375q-3.609375 2.984375 -9.65625 2.984375l-7.1875 0.0l0.0 -7.515625l5.28125 0.0q3.703125 0.0 5.75 -1.765625q2.0625 -1.75 4.546875 -8.296875l1.609375 -4.09375l-22.109375 -53.8125l9.515625 0.0l17.09375 42.765625l17.09375 -42.765625l9.515625 0.0z"/>
<path id="c_1c42d34b43669355036eab3e62f3548e" d="M4.890625 -31.390625l26.3125 0.0l0.0 8.0l-26.3125 0.0z"/>
<path id="c_2322e4f977aa11305e2465866d88750f" d="M12.40625 -8.296875l16.109375 0.0l0.0 -55.625l-17.53125 3.515625l0.0 -8.984375l17.4375 -3.515625l9.859375 0.0l0.0 64.609375l16.109375 0.0l0.0 8.296875l-41.984375 0.0z"/>
<path id="c_640b5960c5fe26e83b53fed68bcebad3" d="M10.6875 -12.40625l10.3125 0.0l0.0 12.40625l-10.3125 0.0z"/>
<path id="c_0f8aa7a3642d7cc7afc284b770f4c32d" d="M31.78125 -34.625q-7.03125 0.0 -11.0625 3.765625q-4.015625 3.765625 -4.015625 10.34375q0.0 6.59375 4.015625 10.359375q4.03125 3.765625 11.0625 3.765625q7.03125 0.0 11.078125 -3.78125q4.0625 -3.796875 4.0625 -10.34375q0.0 -6.578125 -4.03125 -10.34375q-4.015625 -3.765625 -11.109375 -3.765625M21.921875 -38.8125q-6.34375 -1.5625 -9.890625 -5.90625q-3.53125 -4.359375 -3.53125 -10.609375q0.0 -8.734375 6.21875 -13.8125q6.234375 -5.078125 17.0625 -5.078125q10.890625 0.0 17.09375 5.078125q6.203125 5.078125 6.203125 13.8125q0.0 6.25 -3.546875 10.609375q-3.53125 4.34375 -9.828125 5.90625q7.125 1.65625 11.09375 6.5q3.984375 4.828125 3.984375 11.796875q0.0 10.609375 -6.46875 16.28125q-6.46875 5.65625 -18.53125 5.65625q-12.046875 0.0 -18.53125 -5.65625q-6.46875 -5.671875 -6.46875 -16.28125q0.0 -6.96875 4.0 -11.796875q4.015625 -4.84375 11.140625 -6.5M18.3125 -54.390625q0.0 5.65625 3.53125 8.828125q3.546875 3.171875 9.9375 3.171875q6.359375 0.0 9.9375 -3.171875q3.59375 -3.171875 3.59375 -8.828125q0.0 -5.671875 -3.59375 -8.84375q-3.578125 -3.171875 -9.9375 -3.171875q-6.390625 0.0 -9.9375 3.171875q-3.53125 3.171875 -3.53125 8.84375"/>
<path id="c_eaed548a39c8bfc1ad9c7a767102867e" d="M19.1875 -8.296875l34.421875 0.0l0.0 8.296875l-46.28125 0.0l0.0 -8.296875q5.609375 -5.8125 15.296875 -15.59375q9.703125 -9.796875 12.1875 -12.640625q4.734375 -5.3125 6.609375 -9.0q1.890625 -3.6875 1.890625 -7.25q0.0 -5.8125 -4.078125 -9.46875q-4.078125 -3.671875 -10.625 -3.671875q-4.640625 0.0 -9.796875 1.609375q-5.140625 1.609375 -11.0 4.890625l0.0 -9.96875q5.953125 -2.390625 11.125 -3.609375q5.1875 -1.21875 9.484375 -1.21875q11.328125 0.0 18.0625 5.671875q6.734375 5.65625 6.734375 15.125q0.0 4.5 -1.6875 8.53125q-1.671875 4.015625 -6.125 9.484375q-1.21875 1.421875 -7.765625 8.1875q-6.53125 6.765625 -18.453125 18.921875"/>
<path id="c_4939d9e1c050704532ef7f437033286b" d="M48.6875 -27.296875q0.0 -9.90625 -4.078125 -15.546875q-4.078125 -5.640625 -11.203125 -5.640625q-7.140625 0.0 -11.21875 5.640625q-4.078125 5.640625 -4.078125 15.546875q0.0 9.90625 4.078125 15.546875q4.078125 5.640625 11.21875 5.640625q7.125 0.0 11.203125 -5.640625q4.078125 -5.640625 4.078125 -15.546875M18.109375 -46.390625q2.84375 -4.875 7.15625 -7.234375q4.328125 -2.375 10.328125 -2.375q9.96875 0.0 16.1875 7.90625q6.234375 7.90625 6.234375 20.796875q0.0 12.890625 -6.234375 20.8125q-6.21875 7.90625 -16.1875 7.90625q-6.0 0.0 -10.328125 -2.375q-4.3125 -2.375 -7.15625 -7.25l0.0 8.203125l-9.03125 0.0l0.0 -75.984375l9.03125 0.0z"/>
</defs>
<g style="fill: #000000; opacity: 1.0" transform="translate(7.452,366.374)scale(0.12)">
<use xlink:href="#c_513dbe2c276079f39ecef771c689c13a"/>
<use xlink:href="#c_e33e9f75b343c712beb8957b453e5802" x="63.4765625"/>
<use xlink:href="#c_97cced06352dabd27facc1bd04e1f2f5" x="160.888671875"/>
<use xlink:href="#c_401cc870e2737ac21a21bd24c8b21204" x="222.16796875"/>
<use xlink:href="#c_513dbe2c276079f39ecef771c689c13a" x="285.64453125"/>
<use xlink:href="#c_8e7fa73cf60e732bddcc1945b138603a" x="349.12109375"/>
<use xlink:href="#c_1c42d34b43669355036eab3e62f3548e" x="406.55078125"/>
<use xlink:href="#c_2322e4f977aa11305e2465866d88750f" x="442.634765625"/>
<use xlink:href="#c_640b5960c5fe26e83b53fed68bcebad3" x="506.2578125"/>
<use xlink:href="#c_0f8aa7a3642d7cc7afc284b770f4c32d" x="538.044921875"/>
<use xlink:href="#c_eaed548a39c8bfc1ad9c7a767102867e" x="601.66796875"/>
<use xlink:href="#c_4939d9e1c050704532ef7f437033286b" x="665.291015625"/>
</g>
</g>
</svg>
